<svg width="60" height="60" viewBox="0 0 60 60" fill="none" xmlns="http://www.w3.org/2000/svg">
<path d="M41.185 13.5199L46.48 18.8124L41.185 13.5199ZM44.59 8.85743L30.2725 23.1749C29.5327 23.9137 29.0282 24.8549 28.8225 25.8799L27.5 32.4999L34.12 31.1749C35.145 30.9699 36.085 30.4674 36.825 29.7274L51.1425 15.4099C51.5727 14.9797 51.914 14.4689 52.1469 13.9068C52.3797 13.3446 52.4996 12.7421 52.4996 12.1337C52.4996 11.5252 52.3797 10.9227 52.1469 10.3606C51.914 9.79845 51.5727 9.28768 51.1425 8.85743C50.7123 8.42719 50.2015 8.0859 49.6393 7.85306C49.0772 7.62021 48.4747 7.50037 47.8663 7.50037C47.2578 7.50037 46.6553 7.62021 46.0932 7.85306C45.531 8.0859 45.0202 8.42719 44.59 8.85743V8.85743Z" stroke="white" stroke-width="2" stroke-linecap="round" stroke-linejoin="round"/>
<path d="M47.5 37.5V45C47.5 46.3261 46.9732 47.5979 46.0355 48.5355C45.0979 49.4732 43.8261 50 42.5 50H15C13.6739 50 12.4021 49.4732 11.4645 48.5355C10.5268 47.5979 10 46.3261 10 45V17.5C10 16.1739 10.5268 14.9021 11.4645 13.9645C12.4021 13.0268 13.6739 12.5 15 12.5H22.5" stroke="white" stroke-width="2" stroke-linecap="round" stroke-linejoin="round"/>
</svg>