<svg width="738" height="544" viewBox="0 0 738 544" fill="none" xmlns="http://www.w3.org/2000/svg">
<g clip-path="url(#clip0)">
<path d="M273.316 335.182L120.67 367.357C116.259 368.281 111.661 367.418 107.885 364.957C104.109 362.496 101.464 358.638 100.529 354.229L74.3354 229.959C73.4108 225.548 74.2737 220.95 76.7349 217.174C79.1961 213.398 83.0545 210.753 87.4636 209.818L240.11 177.643C244.521 176.719 249.119 177.582 252.895 180.043C256.67 182.504 259.316 186.362 260.25 190.772L286.444 315.041C287.369 319.452 286.506 324.05 284.045 327.826C281.583 331.602 277.725 334.247 273.316 335.182ZM87.8762 211.775C83.9858 212.6 80.5813 214.934 78.4097 218.266C76.238 221.597 75.4766 225.654 76.2924 229.547L102.486 353.816C103.311 357.706 105.645 361.111 108.977 363.283C112.308 365.454 116.365 366.216 120.257 365.4L272.903 333.225C276.794 332.4 280.198 330.066 282.37 326.734C284.541 323.403 285.303 319.346 284.487 315.453L258.293 191.184C257.469 187.294 255.134 183.889 251.803 181.717C248.471 179.546 244.414 178.784 240.522 179.6L87.8762 211.775Z" fill="#3F3D56"/>
<path d="M230.625 218.618L153.587 234.857C152.913 235.013 152.204 234.908 151.605 234.562C151.005 234.216 150.56 233.656 150.358 232.994C150.265 232.648 150.244 232.288 150.296 231.934C150.347 231.581 150.47 231.241 150.657 230.937C150.844 230.632 151.091 230.369 151.383 230.163C151.676 229.957 152.006 229.813 152.356 229.74L230.776 213.21C233.838 214.936 232.871 218.145 230.624 218.619L230.625 218.618Z" fill="#CCCCCC"/>
<path d="M233.474 232.131L156.435 248.37C155.761 248.526 155.053 248.421 154.453 248.075C153.854 247.729 153.408 247.169 153.206 246.507C153.114 246.162 153.092 245.801 153.144 245.448C153.195 245.094 153.318 244.754 153.506 244.45C153.693 244.145 153.94 243.882 154.232 243.676C154.524 243.471 154.855 243.326 155.204 243.253L233.625 226.723C236.687 228.449 235.719 231.658 233.473 232.132L233.474 232.131Z" fill="#CCCCCC"/>
<path d="M141.403 259.574L117.892 264.53C117.124 264.691 116.324 264.541 115.666 264.112C115.009 263.684 114.549 263.012 114.386 262.245L108.538 234.499C108.377 233.732 108.527 232.931 108.955 232.274C109.384 231.617 110.055 231.156 110.823 230.994L134.334 226.038C135.102 225.877 135.902 226.028 136.559 226.456C137.217 226.884 137.677 227.556 137.84 228.323L143.688 256.068C143.849 256.836 143.699 257.637 143.271 258.294C142.842 258.951 142.171 259.412 141.403 259.574V259.574Z" fill="#CCCCCC"/>
<path d="M239.081 259.847L121.507 284.629C120.833 284.786 120.124 284.681 119.525 284.335C118.925 283.989 118.479 283.428 118.277 282.766C118.185 282.421 118.164 282.061 118.216 281.707C118.267 281.354 118.39 281.014 118.577 280.71C118.764 280.405 119.011 280.142 119.303 279.936C119.595 279.73 119.926 279.586 120.276 279.512L239.234 254.438C242.296 256.164 241.328 259.373 239.081 259.847Z" fill="#CCCCCC"/>
<path d="M241.931 273.364L124.356 298.146C123.682 298.303 122.973 298.198 122.374 297.852C121.774 297.506 121.329 296.945 121.127 296.283C121.034 295.938 121.013 295.578 121.065 295.224C121.116 294.871 121.239 294.531 121.426 294.227C121.613 293.922 121.86 293.659 122.152 293.453C122.445 293.247 122.776 293.103 123.125 293.029L242.083 267.955C245.145 269.681 244.177 272.89 241.931 273.364Z" fill="#CCCCCC"/>
<path d="M244.778 286.872L127.203 311.655C126.529 311.811 125.821 311.706 125.221 311.36C124.622 311.014 124.176 310.453 123.974 309.792C123.882 309.446 123.86 309.086 123.912 308.732C123.963 308.379 124.086 308.039 124.273 307.735C124.46 307.43 124.708 307.167 125 306.961C125.292 306.755 125.623 306.611 125.972 306.537L244.93 281.463C247.992 283.189 247.024 286.398 244.778 286.872H244.778Z" fill="#CCCCCC"/>
<path d="M247.627 300.388L130.052 325.171C129.378 325.327 128.67 325.222 128.07 324.876C127.471 324.53 127.025 323.969 126.823 323.308C126.73 322.962 126.709 322.602 126.761 322.248C126.812 321.895 126.935 321.555 127.122 321.251C127.309 320.946 127.557 320.683 127.849 320.477C128.141 320.271 128.472 320.127 128.821 320.053L247.779 294.979C250.841 296.705 249.873 299.914 247.627 300.388Z" fill="#CCCCCC"/>
<path d="M250.474 313.897L132.9 338.68C132.225 338.836 131.517 338.731 130.918 338.385C130.318 338.039 129.872 337.479 129.67 336.817C129.578 336.472 129.557 336.111 129.608 335.758C129.66 335.404 129.783 335.064 129.97 334.76C130.157 334.455 130.404 334.192 130.696 333.986C130.988 333.781 131.319 333.636 131.669 333.563L250.627 308.488C253.688 310.214 252.721 313.424 250.474 313.897Z" fill="#CCCCCC"/>
<path d="M269.229 252.03C268.962 252.515 268.733 253.02 268.546 253.54L220.412 265.485L212.039 256.822L197.314 267.75L210.647 284.526C211.724 285.882 213.212 286.851 214.887 287.289C216.562 287.727 218.333 287.609 219.936 286.954L272.165 265.612C273.882 266.876 275.943 267.587 278.073 267.651C280.204 267.715 282.304 267.128 284.093 265.97C285.883 264.811 287.277 263.135 288.09 261.165C288.904 259.195 289.099 257.024 288.648 254.94C288.198 252.857 287.124 250.96 285.569 249.502C284.014 248.043 282.052 247.093 279.944 246.777C277.836 246.461 275.681 246.795 273.767 247.733C271.853 248.671 270.27 250.17 269.229 252.03L269.229 252.03Z" fill="#FFB8B8"/>
<path d="M104.932 358.323C106.433 357.859 107.814 357.072 108.977 356.018C110.141 354.963 111.059 353.666 111.667 352.218C112.275 350.77 112.558 349.206 112.497 347.637C112.435 346.067 112.03 344.531 111.31 343.135L144.435 251.068L121.431 246.991L96.1044 338.772C93.8395 340.136 92.1539 342.284 91.367 344.809C90.58 347.333 90.7464 350.058 91.8345 352.468C92.9226 354.878 94.857 356.805 97.271 357.884C99.685 358.963 102.411 359.119 104.932 358.323Z" fill="#FFB8B8"/>
<path d="M140.228 267.411L117.515 258.694C116.869 258.446 116.284 258.061 115.8 257.567C115.315 257.072 114.943 256.479 114.709 255.828C114.475 255.176 114.383 254.482 114.441 253.793C114.5 253.103 114.706 252.434 115.046 251.831L126.961 230.705C128.249 227.407 130.793 224.755 134.034 223.329C137.275 221.903 140.949 221.82 144.25 223.098C147.552 224.377 150.213 226.912 151.649 230.149C153.084 233.385 153.179 237.059 151.911 240.365L146.655 263.962C146.504 264.638 146.21 265.273 145.792 265.824C145.373 266.376 144.841 266.831 144.231 267.158C143.621 267.485 142.948 267.677 142.257 267.721C141.566 267.764 140.874 267.659 140.228 267.411V267.411Z" fill="#00F0FF"/>
<path d="M191.493 531.175H203.752L209.585 483.887L191.491 483.888L191.493 531.175Z" fill="#FFB8B8"/>
<path d="M188.366 527.173L212.509 527.172H212.51C214.531 527.172 216.532 527.57 218.398 528.343C220.265 529.116 221.961 530.249 223.39 531.678C224.819 533.107 225.952 534.803 226.726 536.67C227.499 538.537 227.897 540.537 227.897 542.558V543.058L188.366 543.059L188.366 527.173Z" fill="#2F2E41"/>
<path d="M122.493 531.175H134.752L140.585 483.887L122.491 483.888L122.493 531.175Z" fill="#FFB8B8"/>
<path d="M119.366 527.173L143.509 527.172H143.51C145.531 527.172 147.532 527.57 149.398 528.343C151.265 529.116 152.961 530.249 154.39 531.678C155.819 533.107 156.952 534.803 157.726 536.67C158.499 538.537 158.897 540.537 158.897 542.558V543.058L119.366 543.059L119.366 527.173Z" fill="#2F2E41"/>
<path d="M135.345 512.142H119.831C119.222 512.142 118.619 512.019 118.059 511.779C117.5 511.539 116.994 511.189 116.574 510.748C116.154 510.307 115.827 509.786 115.615 509.215C115.402 508.645 115.307 508.037 115.336 507.429L122.705 349.097L123.169 349.084L198.089 347.131L212.749 505.554C212.805 506.148 212.743 506.747 212.566 507.316C212.389 507.886 212.1 508.415 211.716 508.872C211.333 509.329 210.862 509.705 210.332 509.978C209.802 510.252 209.223 510.417 208.628 510.465L191.202 511.858C190.107 511.945 189.018 511.629 188.14 510.97C187.262 510.31 186.656 509.352 186.435 508.276L164.145 395.5C164.084 395.157 163.902 394.848 163.633 394.628C163.363 394.408 163.023 394.292 162.676 394.301H162.669C162.32 394.293 161.98 394.411 161.711 394.633C161.442 394.856 161.262 395.167 161.203 395.512L139.761 508.512C139.558 509.534 139.007 510.454 138.202 511.116C137.397 511.778 136.387 512.141 135.345 512.142Z" fill="#2F2E41"/>
<path d="M163.765 207.885C177.33 207.885 188.326 196.888 188.326 183.324C188.326 169.759 177.33 158.763 163.765 158.763C150.2 158.763 139.204 169.759 139.204 183.324C139.204 196.888 150.2 207.885 163.765 207.885Z" fill="#FFB8B8"/>
<path d="M155.529 367.651C143.823 367.651 131.799 364.574 121.831 355.476C121.301 354.996 120.891 354.396 120.636 353.727C120.381 353.059 120.287 352.339 120.362 351.627C121.429 342.041 126.604 292.546 123.69 259.483C123.121 253.308 123.995 247.084 126.243 241.305C128.492 235.525 132.053 230.347 136.645 226.179C141.157 222.02 146.574 218.967 152.468 217.261C158.362 215.554 164.571 215.24 170.607 216.345H170.607C170.913 216.399 171.219 216.457 171.525 216.516C191.189 220.321 204.851 238.519 203.305 258.847C201.049 288.507 199.027 328.626 202.202 351.314C202.334 352.243 202.172 353.189 201.739 354.02C201.306 354.852 200.624 355.527 199.788 355.951C192.563 359.601 174.461 367.651 155.529 367.651Z" fill="#00F0FF"/>
<path d="M187.579 269.178C187.002 268.794 186.516 268.291 186.151 267.702C185.787 267.114 185.555 266.453 185.469 265.766L182.477 241.777C181.527 238.365 181.969 234.716 183.705 231.629C185.441 228.543 188.331 226.271 191.74 225.311C195.149 224.352 198.799 224.784 201.891 226.511C204.982 228.239 207.262 231.122 208.231 234.529L218.087 256.69C218.368 257.322 218.51 258.008 218.502 258.7C218.495 259.392 218.338 260.075 218.043 260.701C217.748 261.327 217.321 261.882 216.792 262.328C216.263 262.775 215.644 263.102 214.977 263.287L191.54 269.809C190.873 269.995 190.174 270.035 189.49 269.926C188.807 269.817 188.155 269.562 187.579 269.178Z" fill="#00F0FF"/>
<path d="M155.191 207.538C152.866 207.581 150.556 207.163 148.394 206.308C147.442 205.941 146.455 205.64 145.505 205.273C137.118 202.033 131.594 193.101 131.396 184.113C131.198 175.124 135.853 166.4 142.765 160.65C149.677 154.901 158.63 151.949 167.595 151.266C177.252 150.531 188.125 152.98 193.521 161.022C194.958 163.163 195.962 165.76 195.111 168.344C194.856 169.124 194.401 169.824 193.791 170.372C191.381 172.516 188.978 170.904 186.522 170.762C183.145 170.566 180.113 173.299 179.023 176.501C177.933 179.703 178.412 183.228 179.293 186.493C179.963 188.458 180.386 190.499 180.551 192.569C180.622 193.607 180.427 194.646 179.984 195.587C179.541 196.528 178.865 197.341 178.02 197.948C175.91 199.223 173.139 198.485 171.028 197.212C168.917 195.938 167.093 194.168 164.812 193.231C162.532 192.294 159.468 192.502 158.141 194.579C157.719 195.335 157.433 196.16 157.297 197.015C156.107 202.436 156.381 202.117 155.191 207.538V207.538Z" fill="#2F2E41"/>
<path d="M495.39 174H339.39C334.883 173.995 330.562 172.202 327.375 169.015C324.188 165.828 322.395 161.507 322.39 157V30C322.395 25.4929 324.188 21.1718 327.375 17.9848C330.562 14.7978 334.883 13.0051 339.39 13H495.39C499.897 13.0051 504.218 14.7978 507.405 17.9848C510.592 21.1718 512.385 25.4929 512.39 30V157C512.385 161.507 510.592 165.828 507.405 169.015C504.218 172.202 499.897 173.995 495.39 174ZM339.39 15C335.413 15.0045 331.6 16.5863 328.788 19.3984C325.976 22.2104 324.394 26.0231 324.39 30V157C324.394 160.977 325.976 164.79 328.788 167.602C331.6 170.414 335.413 171.995 339.39 172H495.39C499.367 171.995 503.179 170.414 505.991 167.602C508.803 164.79 510.385 160.977 510.39 157V30C510.385 26.0231 508.803 22.2104 505.991 19.3984C503.179 16.5863 499.367 15.0045 495.39 15H339.39Z" fill="#3F3D56"/>
<path d="M477.658 51.138H398.927C398.235 51.152 397.564 50.9028 397.048 50.4408C396.533 49.9787 396.213 49.3383 396.152 48.6489C396.132 48.2921 396.186 47.9351 396.309 47.5997C396.433 47.2643 396.623 46.9576 396.869 46.6982C397.115 46.4388 397.411 46.2322 397.739 46.091C398.067 45.9498 398.421 45.877 398.778 45.877H478.922C481.562 48.197 479.953 51.138 477.657 51.138L477.658 51.138Z" fill="#CCCCCC"/>
<path d="M477.658 64.948H398.927C398.235 64.962 397.564 64.7129 397.048 64.2508C396.533 63.7888 396.213 63.1483 396.152 62.4589C396.132 62.1021 396.186 61.7451 396.309 61.4097C396.433 61.0743 396.623 60.7676 396.869 60.5082C397.115 60.2488 397.411 60.0422 397.739 59.901C398.067 59.7598 398.421 59.687 398.778 59.687H478.922C481.562 62.007 479.953 64.948 477.657 64.948L477.658 64.948Z" fill="#CCCCCC"/>
<path d="M381.907 72.811H357.879C357.095 72.8102 356.343 72.4982 355.788 71.9435C355.233 71.3887 354.921 70.6365 354.92 69.852V41.497C354.921 40.7125 355.233 39.9603 355.788 39.4055C356.343 38.8508 357.095 38.5388 357.879 38.538H381.907C382.692 38.5391 383.444 38.8511 383.998 39.4058C384.553 39.9605 384.865 40.7125 384.866 41.497V69.852C384.865 70.6365 384.553 71.3887 383.999 71.9435C383.444 72.4982 382.692 72.8102 381.907 72.811Z" fill="#3F3D56"/>
<path d="M477.429 93.224H357.271C356.579 93.238 355.908 92.9889 355.392 92.5268C354.877 92.0648 354.557 91.4243 354.495 90.735C354.476 90.3781 354.53 90.0212 354.653 89.6858C354.777 89.3504 354.967 89.0436 355.213 88.7842C355.459 88.5248 355.755 88.3182 356.083 88.1771C356.411 88.0359 356.765 87.9631 357.122 87.9631H478.694C481.334 90.2831 479.725 93.2241 477.429 93.2241V93.224Z" fill="#CCCCCC"/>
<path d="M477.429 107.038H357.271C356.579 107.052 355.908 106.803 355.392 106.341C354.877 105.879 354.557 105.238 354.495 104.549C354.476 104.192 354.53 103.835 354.653 103.5C354.777 103.164 354.967 102.858 355.213 102.598C355.459 102.339 355.755 102.132 356.083 101.991C356.411 101.85 356.765 101.777 357.122 101.777H478.694C481.334 104.097 479.725 107.038 477.429 107.038V107.038Z" fill="#CCCCCC"/>
<path d="M477.429 120.843H357.271C356.579 120.857 355.908 120.608 355.392 120.146C354.877 119.684 354.557 119.043 354.495 118.354C354.476 117.997 354.53 117.64 354.653 117.305C354.777 116.969 354.967 116.663 355.213 116.403C355.459 116.144 355.755 115.937 356.083 115.796C356.411 115.655 356.765 115.582 357.122 115.582H478.694C481.334 117.902 479.725 120.843 477.429 120.843V120.843Z" fill="#CCCCCC"/>
<path d="M477.429 134.656H357.271C356.579 134.67 355.908 134.421 355.392 133.959C354.877 133.497 354.557 132.856 354.495 132.167C354.476 131.81 354.53 131.453 354.653 131.118C354.777 130.782 354.967 130.476 355.213 130.216C355.459 129.957 355.755 129.75 356.083 129.609C356.411 129.468 356.765 129.395 357.122 129.395H478.694C481.334 131.715 479.725 134.656 477.429 134.656V134.656Z" fill="#CCCCCC"/>
<path d="M477.429 148.462H357.271C356.579 148.476 355.908 148.227 355.392 147.765C354.877 147.303 354.557 146.662 354.495 145.973C354.476 145.616 354.53 145.259 354.653 144.924C354.777 144.588 354.967 144.282 355.213 144.022C355.459 143.763 355.755 143.556 356.083 143.415C356.411 143.274 356.765 143.201 357.122 143.201H478.694C481.334 145.521 479.725 148.462 477.429 148.462Z" fill="#CCCCCC"/>
<path d="M461.39 0C462.715 0.00151655 463.986 0.528787 464.924 1.46614C465.861 2.40349 466.388 3.67438 466.39 5V21C466.388 22.3256 465.861 23.5965 464.924 24.5339C463.986 25.4712 462.715 25.9985 461.39 26H373.39C372.064 25.9985 370.793 25.4712 369.856 24.5339C368.919 23.5965 368.391 22.3256 368.39 21V5C368.391 3.67438 368.919 2.40349 369.856 1.46614C370.793 0.528787 372.064 0.00151655 373.39 0" fill="#FF9CE3"/>
<path d="M720.39 331H564.39C559.883 330.995 555.562 329.202 552.375 326.015C549.188 322.828 547.395 318.507 547.39 314V187C547.395 182.493 549.188 178.172 552.375 174.985C555.562 171.798 559.883 170.005 564.39 170H720.39C724.897 170.005 729.218 171.798 732.405 174.985C735.592 178.172 737.385 182.493 737.39 187V314C737.385 318.507 735.592 322.828 732.405 326.015C729.218 329.202 724.897 330.995 720.39 331ZM564.39 172C560.413 172.004 556.6 173.586 553.788 176.398C550.976 179.21 549.394 183.023 549.39 187V314C549.394 317.977 550.976 321.79 553.788 324.602C556.6 327.414 560.413 328.995 564.39 329H720.39C724.367 328.995 728.179 327.414 730.991 324.602C733.803 321.79 735.385 317.977 735.39 314V187C735.385 183.023 733.803 179.21 730.991 176.398C728.179 173.586 724.367 172.004 720.39 172H564.39Z" fill="#3F3D56"/>
<path d="M702.658 208.138H623.927C623.235 208.152 622.564 207.903 622.048 207.441C621.533 206.979 621.213 206.338 621.152 205.649C621.132 205.292 621.186 204.935 621.309 204.6C621.433 204.264 621.623 203.958 621.869 203.698C622.115 203.439 622.411 203.232 622.739 203.091C623.067 202.95 623.421 202.877 623.778 202.877H703.922C706.562 205.197 704.953 208.138 702.657 208.138H702.658Z" fill="#3F3D56"/>
<path d="M702.658 221.948H623.927C623.235 221.962 622.564 221.713 622.048 221.251C621.533 220.789 621.213 220.148 621.152 219.459C621.132 219.102 621.186 218.745 621.309 218.41C621.433 218.074 621.623 217.768 621.869 217.508C622.115 217.249 622.411 217.042 622.739 216.901C623.067 216.76 623.421 216.687 623.778 216.687H703.922C706.562 219.007 704.953 221.948 702.657 221.948H702.658Z" fill="#3F3D56"/>
<path d="M606.907 229.811H582.879C582.095 229.81 581.343 229.498 580.788 228.943C580.233 228.389 579.921 227.637 579.92 226.852V198.497C579.921 197.712 580.233 196.96 580.788 196.406C581.343 195.851 582.095 195.539 582.879 195.538H606.907C607.692 195.539 608.444 195.851 608.998 196.406C609.553 196.961 609.865 197.713 609.866 198.497V226.852C609.865 227.637 609.553 228.389 608.999 228.943C608.444 229.498 607.692 229.81 606.907 229.811Z" fill="#CCCCCC"/>
<path d="M701.907 306.811H677.879C677.095 306.81 676.343 306.498 675.788 305.943C675.233 305.389 674.921 304.637 674.92 303.852V287.497C674.921 286.712 675.233 285.96 675.788 285.406C676.343 284.851 677.095 284.539 677.879 284.538H701.907C702.692 284.539 703.444 284.851 703.998 285.406C704.553 285.961 704.865 286.713 704.866 287.497V303.852C704.865 304.637 704.553 305.389 703.999 305.943C703.444 306.498 702.692 306.81 701.907 306.811Z" fill="#3F3D56"/>
<path d="M702.429 250.224H582.271C581.579 250.238 580.908 249.989 580.392 249.527C579.877 249.065 579.557 248.424 579.495 247.735C579.476 247.378 579.53 247.021 579.653 246.686C579.777 246.35 579.967 246.044 580.213 245.784C580.459 245.525 580.755 245.318 581.083 245.177C581.411 245.036 581.765 244.963 582.122 244.963H703.694C706.334 247.283 704.725 250.224 702.429 250.224V250.224Z" fill="#CCCCCC"/>
<path d="M702.429 264.038H582.271C581.579 264.052 580.908 263.803 580.392 263.341C579.877 262.879 579.557 262.238 579.495 261.549C579.476 261.192 579.53 260.835 579.653 260.5C579.777 260.164 579.967 259.858 580.213 259.598C580.459 259.339 580.755 259.132 581.083 258.991C581.411 258.85 581.765 258.777 582.122 258.777H703.694C706.334 261.097 704.725 264.038 702.429 264.038V264.038Z" fill="#CCCCCC"/>
<path d="M702.429 277.843H582.271C581.579 277.857 580.908 277.608 580.392 277.146C579.877 276.684 579.557 276.043 579.495 275.354C579.476 274.997 579.53 274.64 579.653 274.305C579.777 273.969 579.967 273.663 580.213 273.403C580.459 273.144 580.755 272.937 581.083 272.796C581.411 272.655 581.765 272.582 582.122 272.582H703.694C706.334 274.902 704.725 277.843 702.429 277.843V277.843Z" fill="#CCCCCC"/>
<path d="M639.429 291.656H582.271C581.579 291.67 580.908 291.421 580.392 290.959C579.877 290.497 579.557 289.856 579.495 289.167C579.476 288.81 579.53 288.453 579.653 288.118C579.777 287.782 579.967 287.476 580.213 287.216C580.459 286.957 580.755 286.75 581.083 286.609C581.411 286.468 581.765 286.395 582.122 286.395H640.694C643.334 288.715 641.725 291.656 639.429 291.656V291.656Z" fill="#CCCCCC"/>
<path d="M639.429 305.462H582.271C581.579 305.476 580.908 305.227 580.392 304.765C579.877 304.303 579.557 303.662 579.495 302.973C579.476 302.616 579.53 302.259 579.653 301.924C579.777 301.588 579.967 301.282 580.213 301.022C580.459 300.763 580.755 300.556 581.083 300.415C581.411 300.274 581.765 300.201 582.122 300.201H640.694C643.334 302.521 641.725 305.462 639.429 305.462Z" fill="#CCCCCC"/>
<path d="M686.39 183H598.39C597.064 182.998 595.793 182.471 594.856 181.534C593.919 180.596 593.391 179.326 593.39 178V162C593.391 160.674 593.919 159.404 594.856 158.466C595.793 157.529 597.064 157.002 598.39 157H686.39C687.715 157.002 688.986 157.529 689.924 158.466C690.861 159.404 691.388 160.674 691.39 162V178C691.388 179.326 690.861 180.596 689.924 181.534C688.986 182.471 687.715 182.998 686.39 183Z" fill="#97FF57"/>
<path d="M382 544H1C0.734784 544 0.480429 543.895 0.292892 543.707C0.105356 543.52 0 543.265 0 543C0 542.735 0.105356 542.48 0.292892 542.293C0.480429 542.105 0.734784 542 1 542H382C382.265 542 382.52 542.105 382.707 542.293C382.895 542.48 383 542.735 383 543C383 543.265 382.895 543.52 382.707 543.707C382.52 543.895 382.265 544 382 544Z" fill="#3F3D56"/>
<path d="M96.7638 29.7912C100.335 29.7912 103.231 26.8959 103.231 23.3243C103.231 19.7527 100.335 16.8574 96.7638 16.8574C93.1922 16.8574 90.2969 19.7527 90.2969 23.3243C90.2969 26.8959 93.1922 29.7912 96.7638 29.7912Z" fill="#F2F2F2"/>
<path d="M96.7638 55.5645C100.335 55.5645 103.231 52.6692 103.231 49.0976C103.231 45.526 100.335 42.6307 96.7638 42.6307C93.1922 42.6307 90.2969 45.526 90.2969 49.0976C90.2969 52.6692 93.1922 55.5645 96.7638 55.5645Z" fill="#F2F2F2"/>
<path d="M96.7638 81.3378C100.335 81.3378 103.231 78.4425 103.231 74.8709C103.231 71.2993 100.335 68.404 96.7638 68.404C93.1922 68.404 90.2969 71.2993 90.2969 74.8709C90.2969 78.4425 93.1922 81.3378 96.7638 81.3378Z" fill="#F2F2F2"/>
<path d="M96.7638 107.111C100.335 107.111 103.231 104.216 103.231 100.644C103.231 97.0726 100.335 94.1773 96.7638 94.1773C93.1922 94.1773 90.2969 97.0726 90.2969 100.644C90.2969 104.216 93.1922 107.111 96.7638 107.111Z" fill="#F2F2F2"/>
<path d="M123.764 29.7912C127.335 29.7912 130.231 26.8959 130.231 23.3243C130.231 19.7527 127.335 16.8574 123.764 16.8574C120.192 16.8574 117.297 19.7527 117.297 23.3243C117.297 26.8959 120.192 29.7912 123.764 29.7912Z" fill="#F2F2F2"/>
<path d="M123.764 55.5645C127.335 55.5645 130.231 52.6692 130.231 49.0976C130.231 45.526 127.335 42.6307 123.764 42.6307C120.192 42.6307 117.297 45.526 117.297 49.0976C117.297 52.6692 120.192 55.5645 123.764 55.5645Z" fill="#F2F2F2"/>
<path d="M123.764 81.3378C127.335 81.3378 130.231 78.4425 130.231 74.8709C130.231 71.2993 127.335 68.404 123.764 68.404C120.192 68.404 117.297 71.2993 117.297 74.8709C117.297 78.4425 120.192 81.3378 123.764 81.3378Z" fill="#F2F2F2"/>
<path d="M123.764 107.111C127.335 107.111 130.231 104.216 130.231 100.644C130.231 97.0726 127.335 94.1773 123.764 94.1773C120.192 94.1773 117.297 97.0726 117.297 100.644C117.297 104.216 120.192 107.111 123.764 107.111Z" fill="#F2F2F2"/>
<path d="M150.764 29.7912C154.335 29.7912 157.231 26.8959 157.231 23.3243C157.231 19.7527 154.335 16.8574 150.764 16.8574C147.192 16.8574 144.297 19.7527 144.297 23.3243C144.297 26.8959 147.192 29.7912 150.764 29.7912Z" fill="#F2F2F2"/>
<path d="M150.764 55.5645C154.335 55.5645 157.231 52.6692 157.231 49.0976C157.231 45.526 154.335 42.6307 150.764 42.6307C147.192 42.6307 144.297 45.526 144.297 49.0976C144.297 52.6692 147.192 55.5645 150.764 55.5645Z" fill="#F2F2F2"/>
<path d="M150.764 81.3378C154.335 81.3378 157.231 78.4425 157.231 74.8709C157.231 71.2993 154.335 68.404 150.764 68.404C147.192 68.404 144.297 71.2993 144.297 74.8709C144.297 78.4425 147.192 81.3378 150.764 81.3378Z" fill="#F2F2F2"/>
<path d="M150.764 107.111C154.335 107.111 157.231 104.216 157.231 100.644C157.231 97.0726 154.335 94.1773 150.764 94.1773C147.192 94.1773 144.297 97.0726 144.297 100.644C144.297 104.216 147.192 107.111 150.764 107.111Z" fill="#F2F2F2"/>
<path d="M177.764 29.7912C181.335 29.7912 184.231 26.8959 184.231 23.3243C184.231 19.7527 181.335 16.8574 177.764 16.8574C174.192 16.8574 171.297 19.7527 171.297 23.3243C171.297 26.8959 174.192 29.7912 177.764 29.7912Z" fill="#F2F2F2"/>
<path d="M177.764 55.5645C181.335 55.5645 184.231 52.6692 184.231 49.0976C184.231 45.526 181.335 42.6307 177.764 42.6307C174.192 42.6307 171.297 45.526 171.297 49.0976C171.297 52.6692 174.192 55.5645 177.764 55.5645Z" fill="#F2F2F2"/>
<path d="M177.764 81.3378C181.335 81.3378 184.231 78.4425 184.231 74.8709C184.231 71.2993 181.335 68.404 177.764 68.404C174.192 68.404 171.297 71.2993 171.297 74.8709C171.297 78.4425 174.192 81.3378 177.764 81.3378Z" fill="#F2F2F2"/>
<path d="M177.764 107.111C181.335 107.111 184.231 104.216 184.231 100.644C184.231 97.0726 181.335 94.1773 177.764 94.1773C174.192 94.1773 171.297 97.0726 171.297 100.644C171.297 104.216 174.192 107.111 177.764 107.111Z" fill="#F2F2F2"/>
<path d="M204.764 29.7912C208.335 29.7912 211.231 26.8959 211.231 23.3243C211.231 19.7527 208.335 16.8574 204.764 16.8574C201.192 16.8574 198.297 19.7527 198.297 23.3243C198.297 26.8959 201.192 29.7912 204.764 29.7912Z" fill="#F2F2F2"/>
<path d="M204.764 55.5645C208.335 55.5645 211.231 52.6692 211.231 49.0976C211.231 45.526 208.335 42.6307 204.764 42.6307C201.192 42.6307 198.297 45.526 198.297 49.0976C198.297 52.6692 201.192 55.5645 204.764 55.5645Z" fill="#F2F2F2"/>
<path d="M204.764 81.3378C208.335 81.3378 211.231 78.4425 211.231 74.8709C211.231 71.2993 208.335 68.404 204.764 68.404C201.192 68.404 198.297 71.2993 198.297 74.8709C198.297 78.4425 201.192 81.3378 204.764 81.3378Z" fill="#F2F2F2"/>
<path d="M204.764 107.111C208.335 107.111 211.231 104.216 211.231 100.644C211.231 97.0726 208.335 94.1773 204.764 94.1773C201.192 94.1773 198.297 97.0726 198.297 100.644C198.297 104.216 201.192 107.111 204.764 107.111Z" fill="#F2F2F2"/>
<path d="M231.764 29.7912C235.335 29.7912 238.231 26.8959 238.231 23.3243C238.231 19.7527 235.335 16.8574 231.764 16.8574C228.192 16.8574 225.297 19.7527 225.297 23.3243C225.297 26.8959 228.192 29.7912 231.764 29.7912Z" fill="#F2F2F2"/>
<path d="M231.764 55.5645C235.335 55.5645 238.231 52.6692 238.231 49.0976C238.231 45.526 235.335 42.6307 231.764 42.6307C228.192 42.6307 225.297 45.526 225.297 49.0976C225.297 52.6692 228.192 55.5645 231.764 55.5645Z" fill="#F2F2F2"/>
<path d="M231.764 81.3378C235.335 81.3378 238.231 78.4425 238.231 74.8709C238.231 71.2993 235.335 68.404 231.764 68.404C228.192 68.404 225.297 71.2993 225.297 74.8709C225.297 78.4425 228.192 81.3378 231.764 81.3378Z" fill="#F2F2F2"/>
<path d="M231.764 107.111C235.335 107.111 238.231 104.216 238.231 100.644C238.231 97.0726 235.335 94.1773 231.764 94.1773C228.192 94.1773 225.297 97.0726 225.297 100.644C225.297 104.216 228.192 107.111 231.764 107.111Z" fill="#F2F2F2"/>
<path d="M601.764 387.791C605.335 387.791 608.231 384.896 608.231 381.324C608.231 377.753 605.335 374.857 601.764 374.857C598.192 374.857 595.297 377.753 595.297 381.324C595.297 384.896 598.192 387.791 601.764 387.791Z" fill="#F2F2F2"/>
<path d="M601.764 413.564C605.335 413.564 608.231 410.669 608.231 407.098C608.231 403.526 605.335 400.631 601.764 400.631C598.192 400.631 595.297 403.526 595.297 407.098C595.297 410.669 598.192 413.564 601.764 413.564Z" fill="#F2F2F2"/>
<path d="M601.764 439.338C605.335 439.338 608.231 436.442 608.231 432.871C608.231 429.299 605.335 426.404 601.764 426.404C598.192 426.404 595.297 429.299 595.297 432.871C595.297 436.442 598.192 439.338 601.764 439.338Z" fill="#F2F2F2"/>
<path d="M628.764 387.791C632.335 387.791 635.231 384.896 635.231 381.324C635.231 377.753 632.335 374.857 628.764 374.857C625.192 374.857 622.297 377.753 622.297 381.324C622.297 384.896 625.192 387.791 628.764 387.791Z" fill="#F2F2F2"/>
<path d="M628.764 413.564C632.335 413.564 635.231 410.669 635.231 407.098C635.231 403.526 632.335 400.631 628.764 400.631C625.192 400.631 622.297 403.526 622.297 407.098C622.297 410.669 625.192 413.564 628.764 413.564Z" fill="#F2F2F2"/>
<path d="M628.764 439.338C632.335 439.338 635.231 436.442 635.231 432.871C635.231 429.299 632.335 426.404 628.764 426.404C625.192 426.404 622.297 429.299 622.297 432.871C622.297 436.442 625.192 439.338 628.764 439.338Z" fill="#F2F2F2"/>
<path d="M655.764 387.791C659.335 387.791 662.231 384.896 662.231 381.324C662.231 377.753 659.335 374.857 655.764 374.857C652.192 374.857 649.297 377.753 649.297 381.324C649.297 384.896 652.192 387.791 655.764 387.791Z" fill="#F2F2F2"/>
<path d="M655.764 413.564C659.335 413.564 662.231 410.669 662.231 407.098C662.231 403.526 659.335 400.631 655.764 400.631C652.192 400.631 649.297 403.526 649.297 407.098C649.297 410.669 652.192 413.564 655.764 413.564Z" fill="#F2F2F2"/>
<path d="M655.764 439.338C659.335 439.338 662.231 436.442 662.231 432.871C662.231 429.299 659.335 426.404 655.764 426.404C652.192 426.404 649.297 429.299 649.297 432.871C649.297 436.442 652.192 439.338 655.764 439.338Z" fill="#F2F2F2"/>
<path d="M682.764 387.791C686.335 387.791 689.231 384.896 689.231 381.324C689.231 377.753 686.335 374.857 682.764 374.857C679.192 374.857 676.297 377.753 676.297 381.324C676.297 384.896 679.192 387.791 682.764 387.791Z" fill="#F2F2F2"/>
<path d="M682.764 413.564C686.335 413.564 689.231 410.669 689.231 407.098C689.231 403.526 686.335 400.631 682.764 400.631C679.192 400.631 676.297 403.526 676.297 407.098C676.297 410.669 679.192 413.564 682.764 413.564Z" fill="#F2F2F2"/>
<path d="M682.764 439.338C686.335 439.338 689.231 436.442 689.231 432.871C689.231 429.299 686.335 426.404 682.764 426.404C679.192 426.404 676.297 429.299 676.297 432.871C676.297 436.442 679.192 439.338 682.764 439.338Z" fill="#F2F2F2"/>
</g>
<defs>
<clipPath id="clip0">
<rect width="737.39" height="544" fill="white"/>
</clipPath>
</defs>
</svg>